<svg width="28" height="21" viewBox="0 0 28 21" fill="none" xmlns="http://www.w3.org/2000/svg">
<rect width="27" height="20" transform="translate(0.333374 0.186035)" fill="white"/>
<path d="M23.4584 10.186C23.4584 12.0617 22.4331 13.8002 20.6952 15.0876C18.9574 16.3748 16.533 17.186 13.8334 17.186C11.1337 17.186 8.70933 16.3748 6.97153 15.0876C5.23365 13.8002 4.20837 12.0617 4.20837 10.186C4.20837 8.31032 5.23365 6.57183 6.97153 5.28451C8.70933 3.99726 11.1337 3.18604 13.8334 3.18604C16.533 3.18604 18.9574 3.99726 20.6952 5.28451C22.4331 6.57183 23.4584 8.31032 23.4584 10.186Z" fill="#2A4157" fill-opacity="0.24" stroke="#222222"/>
<path d="M13.8334 6.85272L13.8334 13.5194" stroke="#222222" stroke-width="1.2" stroke-linecap="round"/>
<path d="M18.3334 10.186L9.33337 10.186" stroke="#222222" stroke-width="1.2" stroke-linecap="round"/>
</svg>
