<svg width="28" height="21" viewBox="0 0 28 21" fill="none" xmlns="http://www.w3.org/2000/svg">
<rect width="27" height="20" transform="translate(0.5 0.215576)" fill="white"/>
<path d="M23.625 10.2156C23.625 12.0913 22.5997 13.8298 20.8618 15.1171C19.124 16.4044 16.6997 17.2156 14 17.2156C11.3003 17.2156 8.87595 16.4044 7.13816 15.1171C5.40028 13.8298 4.375 12.0913 4.375 10.2156C4.375 8.33986 5.40028 6.60137 7.13816 5.31405C8.87595 4.0268 11.3003 3.21558 14 3.21558C16.6997 3.21558 19.124 4.0268 20.8618 5.31405C22.5997 6.60137 23.625 8.33986 23.625 10.2156Z" fill="#2A4157" fill-opacity="0.24" stroke="#222222"/>
<path d="M14 6.88226L14 13.5489" stroke="#222222" stroke-width="1.2" stroke-linecap="round"/>
<path d="M18.5 10.2156L9.5 10.2156" stroke="#222222" stroke-width="1.2" stroke-linecap="round"/>
</svg>
