<svg width="32" height="30" viewBox="0 0 32 30" fill="none" xmlns="http://www.w3.org/2000/svg">
<path d="M8.6021 9.62645C9.01829 5.85473 12.2054 3 16 3C19.7946 3 22.9816 5.85473 23.3978 9.62645L23.6926 12.2978C23.764 12.9446 23.7996 13.268 23.8602 13.5827C24.0441 14.5391 24.401 15.4539 24.9136 16.282C25.0822 16.5545 25.275 16.8166 25.6606 17.3407L26.9902 19.1482C28.0141 20.5401 28.5261 21.236 28.2486 21.7847C27.9711 22.3333 27.1071 22.3333 25.3792 22.3333H6.62075C4.89282 22.3333 4.02885 22.3333 3.75134 21.7847C3.47384 21.236 3.98579 20.5401 5.00971 19.1482L6.33934 17.3407C6.72494 16.8166 6.91773 16.5545 7.08636 16.282C7.59887 15.4539 7.95586 14.5391 8.13976 13.5827C8.20027 13.268 8.23596 12.9446 8.30733 12.2978L8.6021 9.62645Z" fill="#222222"/>
<path d="M13.4242 25.5105C13.5761 25.639 13.9109 25.7525 14.3766 25.8335C14.8423 25.9145 15.4129 25.9583 16 25.9583C16.587 25.9583 17.1576 25.9145 17.6233 25.8335C18.089 25.7525 18.4238 25.639 18.5758 25.5105" stroke="#222222" stroke-width="2" stroke-linecap="round"/>
</svg>
