<svg width="25" height="25" viewBox="0 0 25 25" fill="none" xmlns="http://www.w3.org/2000/svg">
<rect x="4.18262" y="3.5545" width="16" height="18" rx="2" fill="#7E869E" fill-opacity="0.25"/>
<path d="M8.68262 7.0545L15.6826 7.05451" stroke="#222222" stroke-linecap="round"/>
<path d="M8.68262 10.0545L12.6826 10.0545" stroke="#222222" stroke-linecap="round"/>
<path d="M8.68262 13.0545L14.6826 13.0545" stroke="#222222" stroke-linecap="round"/>
<path d="M4.18262 19.5545C4.18262 18.4499 5.07805 17.5545 6.18262 17.5545H17.1826C18.1145 17.5545 18.5804 17.5545 18.948 17.4023C19.438 17.1993 19.8274 16.8099 20.0304 16.3199C20.1826 15.9523 20.1826 15.4864 20.1826 14.5545V17.5545C20.1826 19.4401 20.1826 20.3829 19.5968 20.9687C19.011 21.5545 18.0682 21.5545 16.1826 21.5545H6.18262C5.07805 21.5545 4.18262 20.6591 4.18262 19.5545Z" fill="#222222"/>
</svg>
