<svg width="25" height="25" viewBox="0 0 25 25" fill="none" xmlns="http://www.w3.org/2000/svg">
<rect x="4.18262" y="3.84143" width="16" height="18" rx="2" fill="#7E869E" fill-opacity="0.25"/>
<path d="M8.68262 7.34143L15.6826 7.34143" stroke="#222222" stroke-linecap="round"/>
<path d="M8.68262 10.3414L12.6826 10.3414" stroke="#222222" stroke-linecap="round"/>
<path d="M8.68262 13.3414L14.6826 13.3414" stroke="#222222" stroke-linecap="round"/>
<path d="M4.18262 19.8414C4.18262 18.7369 5.07805 17.8414 6.18262 17.8414H17.1826C18.1145 17.8414 18.5804 17.8414 18.948 17.6892C19.438 17.4862 19.8274 17.0969 20.0304 16.6068C20.1826 16.2393 20.1826 15.7733 20.1826 14.8414V17.8414C20.1826 19.727 20.1826 20.6699 19.5968 21.2556C19.011 21.8414 18.0682 21.8414 16.1826 21.8414H6.18262C5.07805 21.8414 4.18262 20.946 4.18262 19.8414Z" fill="#222222"/>
</svg>
