<svg width="25" height="25" viewBox="0 0 25 25" fill="none" xmlns="http://www.w3.org/2000/svg">
<path d="M12.1826 6.96796V19.968" stroke="#33363F" stroke-width="2" stroke-linecap="round"/>
<path d="M21.1826 6.96796L21.1826 19.968" stroke="#33363F" stroke-width="2" stroke-linecap="round"/>
<path d="M3.18262 6.96796L3.18262 19.968" stroke="#33363F" stroke-width="2" stroke-linecap="round"/>
<path d="M21.1826 19.968C21.1826 19.968 20.1826 17.968 16.6826 17.968C13.1826 17.968 12.1826 19.968 12.1826 19.968" stroke="#33363F" stroke-width="2" stroke-linecap="round"/>
<path d="M12.1826 19.968C12.1826 19.968 11.1826 17.968 7.68262 17.968C4.18262 17.968 3.18262 19.968 3.18262 19.968" stroke="#33363F" stroke-width="2" stroke-linecap="round"/>
<path d="M21.1826 6.96796C21.1826 6.96796 20.1826 4.96796 16.6826 4.96796C13.1826 4.96796 12.1826 6.96796 12.1826 6.96796" stroke="#33363F" stroke-width="2" stroke-linecap="round"/>
<path d="M12.1826 6.96796C12.1826 6.96796 11.1826 4.96796 7.68262 4.96796C4.18262 4.96796 3.18262 6.96796 3.18262 6.96796" stroke="#33363F" stroke-width="2" stroke-linecap="round"/>
</svg>
