<svg width="25" height="25" viewBox="0 0 25 25" fill="none" xmlns="http://www.w3.org/2000/svg">
<path d="M12.1826 6.68103V19.681" stroke="#33363F" stroke-width="2" stroke-linecap="round"/>
<path d="M21.1826 6.68103L21.1826 19.681" stroke="#33363F" stroke-width="2" stroke-linecap="round"/>
<path d="M3.18262 6.68103L3.18262 19.681" stroke="#33363F" stroke-width="2" stroke-linecap="round"/>
<path d="M21.1826 19.681C21.1826 19.681 20.1826 17.681 16.6826 17.681C13.1826 17.681 12.1826 19.681 12.1826 19.681" stroke="#33363F" stroke-width="2" stroke-linecap="round"/>
<path d="M12.1826 19.681C12.1826 19.681 11.1826 17.681 7.68262 17.681C4.18262 17.681 3.18262 19.681 3.18262 19.681" stroke="#33363F" stroke-width="2" stroke-linecap="round"/>
<path d="M21.1826 6.68103C21.1826 6.68103 20.1826 4.68103 16.6826 4.68103C13.1826 4.68103 12.1826 6.68103 12.1826 6.68103" stroke="#33363F" stroke-width="2" stroke-linecap="round"/>
<path d="M12.1826 6.68103C12.1826 6.68103 11.1826 4.68103 7.68262 4.68103C4.18262 4.68103 3.18262 6.68103 3.18262 6.68103" stroke="#33363F" stroke-width="2" stroke-linecap="round"/>
</svg>
