<svg width="15" height="11" viewBox="0 0 15 11" fill="none" xmlns="http://www.w3.org/2000/svg">
<path d="M0.848877 5.75116C0.848877 2.98974 3.08745 0.75116 5.84888 0.75116H9.14136C11.9028 0.75116 14.1414 2.98974 14.1414 5.75116C14.1414 8.51258 11.9028 10.7512 9.14136 10.7512H5.84888C3.08745 10.7512 0.848877 8.51258 0.848877 5.75116Z" fill="white"/>
<path d="M0.848877 5.75116C0.848877 2.98974 3.08745 0.75116 5.84888 0.75116H9.14136C11.9028 0.75116 14.1414 2.98974 14.1414 5.75116C14.1414 8.51258 11.9028 10.7512 9.14136 10.7512H5.84888C3.08745 10.7512 0.848877 8.51258 0.848877 5.75116Z" fill="white"/>
<path d="M0.848877 5.75116C0.848877 2.98974 3.08745 0.75116 5.84888 0.75116H9.14136C11.9028 0.75116 14.1414 2.98974 14.1414 5.75116C14.1414 8.51258 11.9028 10.7512 9.14136 10.7512H5.84888C3.08745 10.7512 0.848877 8.51258 0.848877 5.75116Z" fill="white"/>
<path d="M0.848877 5.75116C0.848877 2.98974 3.08745 0.75116 5.84888 0.75116H9.14136C11.9028 0.75116 14.1414 2.98974 14.1414 5.75116C14.1414 8.51258 11.9028 10.7512 9.14136 10.7512H5.84888C3.08745 10.7512 0.848877 8.51258 0.848877 5.75116Z" fill="white"/>
<path d="M0.848877 5.75116C0.848877 2.98974 3.08745 0.75116 5.84888 0.75116H9.14136C11.9028 0.75116 14.1414 2.98974 14.1414 5.75116C14.1414 8.51258 11.9028 10.7512 9.14136 10.7512H5.84888C3.08745 10.7512 0.848877 8.51258 0.848877 5.75116Z" fill="white"/>
<path d="M0.848877 5.75116C0.848877 2.98974 3.08745 0.75116 5.84888 0.75116H9.14136C11.9028 0.75116 14.1414 2.98974 14.1414 5.75116C14.1414 8.51258 11.9028 10.7512 9.14136 10.7512H5.84888C3.08745 10.7512 0.848877 8.51258 0.848877 5.75116Z" fill="white"/>
<path d="M0.848877 5.75116C0.848877 2.98974 3.08745 0.75116 5.84888 0.75116H9.14136C11.9028 0.75116 14.1414 2.98974 14.1414 5.75116C14.1414 8.51258 11.9028 10.7512 9.14136 10.7512H5.84888C3.08745 10.7512 0.848877 8.51258 0.848877 5.75116Z" fill="white"/>
</svg>
