<svg width="14" height="11" viewBox="0 0 14 11" fill="none" xmlns="http://www.w3.org/2000/svg">
<path d="M0.412598 5.75116C0.412598 2.98974 2.65117 0.75116 5.4126 0.75116H8.70508C11.4665 0.75116 13.7051 2.98974 13.7051 5.75116C13.7051 8.51258 11.4665 10.7512 8.70508 10.7512H5.4126C2.65117 10.7512 0.412598 8.51258 0.412598 5.75116Z" fill="white"/>
<path d="M0.412598 5.75116C0.412598 2.98974 2.65117 0.75116 5.4126 0.75116H8.70508C11.4665 0.75116 13.7051 2.98974 13.7051 5.75116C13.7051 8.51258 11.4665 10.7512 8.70508 10.7512H5.4126C2.65117 10.7512 0.412598 8.51258 0.412598 5.75116Z" fill="white"/>
<path d="M0.412598 5.75116C0.412598 2.98974 2.65117 0.75116 5.4126 0.75116H8.70508C11.4665 0.75116 13.7051 2.98974 13.7051 5.75116C13.7051 8.51258 11.4665 10.7512 8.70508 10.7512H5.4126C2.65117 10.7512 0.412598 8.51258 0.412598 5.75116Z" fill="white"/>
<path d="M0.412598 5.75116C0.412598 2.98974 2.65117 0.75116 5.4126 0.75116H8.70508C11.4665 0.75116 13.7051 2.98974 13.7051 5.75116C13.7051 8.51258 11.4665 10.7512 8.70508 10.7512H5.4126C2.65117 10.7512 0.412598 8.51258 0.412598 5.75116Z" fill="white"/>
<path d="M0.412598 5.75116C0.412598 2.98974 2.65117 0.75116 5.4126 0.75116H8.70508C11.4665 0.75116 13.7051 2.98974 13.7051 5.75116C13.7051 8.51258 11.4665 10.7512 8.70508 10.7512H5.4126C2.65117 10.7512 0.412598 8.51258 0.412598 5.75116Z" fill="white"/>
<path d="M0.412598 5.75116C0.412598 2.98974 2.65117 0.75116 5.4126 0.75116H8.70508C11.4665 0.75116 13.7051 2.98974 13.7051 5.75116C13.7051 8.51258 11.4665 10.7512 8.70508 10.7512H5.4126C2.65117 10.7512 0.412598 8.51258 0.412598 5.75116Z" fill="white"/>
<path d="M0.412598 5.75116C0.412598 2.98974 2.65117 0.75116 5.4126 0.75116H8.70508C11.4665 0.75116 13.7051 2.98974 13.7051 5.75116C13.7051 8.51258 11.4665 10.7512 8.70508 10.7512H5.4126C2.65117 10.7512 0.412598 8.51258 0.412598 5.75116Z" fill="white"/>
</svg>
