<svg width="14" height="11" viewBox="0 0 14 11" fill="none" xmlns="http://www.w3.org/2000/svg">
<path d="M0.577148 5.75116C0.577148 2.98974 2.81572 0.75116 5.57715 0.75116H8.86963C11.6311 0.75116 13.8696 2.98974 13.8696 5.75116C13.8696 8.51258 11.6311 10.7512 8.86963 10.7512H5.57715C2.81572 10.7512 0.577148 8.51258 0.577148 5.75116Z" fill="white"/>
<path d="M0.577148 5.75116C0.577148 2.98974 2.81572 0.75116 5.57715 0.75116H8.86963C11.6311 0.75116 13.8696 2.98974 13.8696 5.75116C13.8696 8.51258 11.6311 10.7512 8.86963 10.7512H5.57715C2.81572 10.7512 0.577148 8.51258 0.577148 5.75116Z" fill="white"/>
<path d="M0.577148 5.75116C0.577148 2.98974 2.81572 0.75116 5.57715 0.75116H8.86963C11.6311 0.75116 13.8696 2.98974 13.8696 5.75116C13.8696 8.51258 11.6311 10.7512 8.86963 10.7512H5.57715C2.81572 10.7512 0.577148 8.51258 0.577148 5.75116Z" fill="white"/>
<path d="M0.577148 5.75116C0.577148 2.98974 2.81572 0.75116 5.57715 0.75116H8.86963C11.6311 0.75116 13.8696 2.98974 13.8696 5.75116C13.8696 8.51258 11.6311 10.7512 8.86963 10.7512H5.57715C2.81572 10.7512 0.577148 8.51258 0.577148 5.75116Z" fill="white"/>
<path d="M0.577148 5.75116C0.577148 2.98974 2.81572 0.75116 5.57715 0.75116H8.86963C11.6311 0.75116 13.8696 2.98974 13.8696 5.75116C13.8696 8.51258 11.6311 10.7512 8.86963 10.7512H5.57715C2.81572 10.7512 0.577148 8.51258 0.577148 5.75116Z" fill="white"/>
<path d="M0.577148 5.75116C0.577148 2.98974 2.81572 0.75116 5.57715 0.75116H8.86963C11.6311 0.75116 13.8696 2.98974 13.8696 5.75116C13.8696 8.51258 11.6311 10.7512 8.86963 10.7512H5.57715C2.81572 10.7512 0.577148 8.51258 0.577148 5.75116Z" fill="white"/>
<path d="M0.577148 5.75116C0.577148 2.98974 2.81572 0.75116 5.57715 0.75116H8.86963C11.6311 0.75116 13.8696 2.98974 13.8696 5.75116C13.8696 8.51258 11.6311 10.7512 8.86963 10.7512H5.57715C2.81572 10.7512 0.577148 8.51258 0.577148 5.75116Z" fill="white"/>
</svg>
