<svg width="25" height="25" viewBox="0 0 25 25" fill="none" xmlns="http://www.w3.org/2000/svg">
<path d="M11.1775 4.8899V8.7699C11.1775 9.09117 11.1141 9.40928 10.9908 9.70596C10.8676 10.0027 10.687 10.2721 10.4593 10.4988C10.2317 10.7255 9.96154 10.905 9.66435 11.027C9.36716 11.1491 9.04879 11.2112 8.72753 11.2099H4.86753C4.54713 11.2118 4.22964 11.1491 3.93408 11.0254C3.63853 10.9016 3.371 10.7195 3.14753 10.4899C2.9211 10.2646 2.74172 9.99647 2.61983 9.70119C2.49794 9.40591 2.43597 9.08934 2.43753 8.7699V4.8999C2.43752 4.2545 2.69322 3.63539 3.14865 3.17809C3.60408 2.72078 4.22213 2.46254 4.86753 2.4599H8.73753C9.05759 2.46021 9.37442 2.524 9.66966 2.64759C9.9649 2.77118 10.2327 2.95211 10.4575 3.1799C10.6855 3.40254 10.8666 3.66852 10.9902 3.96218C11.1139 4.25584 11.1776 4.57127 11.1775 4.8899ZM21.9275 4.8999V8.7699C21.9223 9.4137 21.665 10.0298 21.2107 10.486C20.7563 10.9422 20.1413 11.2021 19.4975 11.2099H15.6175C14.9707 11.2059 14.3506 10.9515 13.8875 10.4999C13.6612 10.2724 13.482 10.0025 13.3602 9.70562C13.2384 9.40876 13.1763 9.09078 13.1775 8.7699V4.8999C13.1762 4.57959 13.2392 4.26226 13.3629 3.96679C13.4866 3.67131 13.6684 3.40372 13.8975 3.1799C14.1224 2.95211 14.3902 2.77118 14.6854 2.64759C14.9806 2.524 15.2975 2.46021 15.6175 2.4599H19.4875C20.133 2.46513 20.7506 2.72388 21.2071 3.18034C21.6636 3.6368 21.9223 4.25439 21.9275 4.8999ZM21.9275 15.6499V19.5199C21.9223 20.1637 21.665 20.7798 21.2107 21.236C20.7563 21.6922 20.1413 21.9521 19.4975 21.9599H15.6175C14.9666 21.9665 14.3388 21.719 13.8675 21.2699C13.6403 21.043 13.4606 20.7733 13.3387 20.4763C13.2168 20.1792 13.1552 19.8609 13.1575 19.5399V15.6699C13.1562 15.3496 13.2193 15.0323 13.343 14.7368C13.4666 14.4414 13.6484 14.1738 13.8775 13.9499C14.1024 13.7222 14.3702 13.5413 14.6654 13.4177C14.9607 13.2941 15.2775 13.2303 15.5975 13.2299H19.4675C20.113 13.2351 20.7306 13.4939 21.1871 13.9503C21.6436 14.4068 21.9023 15.0244 21.9075 15.6699L21.9275 15.6499ZM11.1775 15.6599V19.5299C11.1697 20.1754 10.9084 20.7919 10.4501 21.2465C9.99172 21.7011 9.37306 21.9573 8.72753 21.9599H4.86753C4.54805 21.9612 4.23146 21.8993 3.93604 21.7776C3.64063 21.656 3.37222 21.477 3.14631 21.2511C2.9204 21.0252 2.74146 20.7568 2.61981 20.4614C2.49816 20.166 2.43621 19.8494 2.43753 19.5299V15.6599C2.4401 15.0144 2.69632 14.3957 3.15091 13.9374C3.6055 13.479 4.22204 13.2178 4.86753 13.2099H8.73753C9.38595 13.2155 10.0066 13.4738 10.4675 13.9299C10.9236 14.39 11.1789 15.012 11.1775 15.6599Z" fill="black"/>
</svg>
