<svg width="25" height="25" viewBox="0 0 25 25" fill="none" xmlns="http://www.w3.org/2000/svg">
<path d="M21.8927 21.2692L20.4727 22.6892C20.2853 22.8754 20.0319 22.98 19.7677 22.98C19.5035 22.98 19.25 22.8754 19.0627 22.6892L7.18268 10.8292C6.85751 10.9235 6.5212 10.974 6.18268 10.9792C5.54598 10.9787 4.91859 10.8263 4.35267 10.5346C3.78675 10.2428 3.29864 9.82018 2.92894 9.30182C2.55924 8.78345 2.31862 8.18432 2.22708 7.55423C2.13555 6.92415 2.19575 6.28132 2.40268 5.67919L4.94268 8.21919L5.47268 7.68919L6.89268 6.26919L7.42268 5.73919L4.88268 3.19919C5.48481 2.99226 6.12764 2.93206 6.75773 3.02359C7.38781 3.11513 7.98694 3.35575 8.50531 3.72545C9.02367 4.09515 9.4463 4.58325 9.73804 5.14918C10.0298 5.7151 10.1822 6.34249 10.1827 6.97919C10.1774 7.31771 10.127 7.65402 10.0327 7.97919L21.8927 19.8592C22.0789 20.0465 22.1835 20.3 22.1835 20.5642C22.1835 20.8284 22.0789 21.0818 21.8927 21.2692ZM2.47268 19.8592C2.28643 20.0465 2.18188 20.3 2.18188 20.5642C2.18188 20.8284 2.28643 21.0818 2.47268 21.2692L3.89268 22.6892C4.08004 22.8754 4.33349 22.98 4.59768 22.98C4.86186 22.98 5.11531 22.8754 5.30268 22.6892L10.7727 17.2292L7.94268 14.3992M20.1827 2.97919L16.1827 4.97919V6.97919L14.0127 9.14919L16.0127 11.1492L18.1827 8.97919H20.1827L22.1827 4.97919L20.1827 2.97919Z" fill="#F5F5F5"/>
</svg>
