<svg width="25" height="24" viewBox="0 0 25 24" fill="none" xmlns="http://www.w3.org/2000/svg">
<path d="M20.5364 3V18C20.5364 18.1989 20.4574 18.3897 20.3167 18.5303C20.1761 18.671 19.9853 18.75 19.7864 18.75H7.03638C6.63855 18.75 6.25702 18.908 5.97572 19.1893C5.69441 19.4706 5.53638 19.8522 5.53638 20.25H18.2864C18.4853 20.25 18.6761 20.329 18.8167 20.4697C18.9574 20.6103 19.0364 20.8011 19.0364 21C19.0364 21.1989 18.9574 21.3897 18.8167 21.5303C18.6761 21.671 18.4853 21.75 18.2864 21.75H4.78638C4.58746 21.75 4.3967 21.671 4.25605 21.5303C4.11539 21.3897 4.03638 21.1989 4.03638 21V5.25C4.03638 4.45435 4.35245 3.69129 4.91506 3.12868C5.47767 2.56607 6.24073 2.25 7.03638 2.25H19.7864C19.9853 2.25 20.1761 2.32902 20.3167 2.46967C20.4574 2.61032 20.5364 2.80109 20.5364 3Z" fill="white"/>
</svg>
