<svg width="25" height="25" viewBox="0 0 25 25" fill="none" xmlns="http://www.w3.org/2000/svg">
<path d="M19.1826 11.5834V8.78344C19.1826 7.66333 19.1826 7.10328 18.9646 6.67545C18.7729 6.29913 18.4669 5.99317 18.0906 5.80142C17.6628 5.58344 17.1027 5.58344 15.9826 5.58344H7.38262C6.26251 5.58344 5.70246 5.58344 5.27464 5.80142C4.89831 5.99317 4.59235 6.29913 4.4006 6.67545C4.18262 7.10328 4.18262 7.66333 4.18262 8.78343V14.3834C4.18262 15.5035 4.18262 16.0636 4.4006 16.4914C4.59235 16.8677 4.89831 17.1737 5.27464 17.3654C5.70246 17.5834 6.26251 17.5834 7.38262 17.5834H14.1826" stroke="#33363F" stroke-width="2" stroke-linecap="round"/>
<path d="M8.18262 13.5834H12.1826" stroke="#33363F" stroke-width="2" stroke-linecap="round"/>
<path d="M8.18262 9.58344H15.1826" stroke="#33363F" stroke-width="2" stroke-linecap="round"/>
<circle cx="18.1826" cy="15.5834" r="1" stroke="#33363F" stroke-width="2"/>
<path d="M20.1826 20.5834C20.1826 20.5834 19.6826 19.5834 18.1826 19.5834C16.6826 19.5834 16.1826 20.5834 16.1826 20.5834" stroke="#33363F" stroke-width="2" stroke-linecap="round"/>
</svg>
