<svg width="25" height="25" viewBox="0 0 25 25" fill="none" xmlns="http://www.w3.org/2000/svg">
<path d="M19.1826 11.2965V8.49651C19.1826 7.3764 19.1826 6.81635 18.9646 6.38853C18.7729 6.0122 18.4669 5.70624 18.0906 5.5145C17.6628 5.29651 17.1027 5.29651 15.9826 5.29651H7.38262C6.26251 5.29651 5.70246 5.29651 5.27464 5.5145C4.89831 5.70624 4.59235 6.0122 4.4006 6.38853C4.18262 6.81635 4.18262 7.3764 4.18262 8.49651V14.0965C4.18262 15.2166 4.18262 15.7767 4.4006 16.2045C4.59235 16.5808 4.89831 16.8868 5.27464 17.0785C5.70246 17.2965 6.26251 17.2965 7.38262 17.2965H14.1826" stroke="#33363F" stroke-width="2" stroke-linecap="round"/>
<path d="M8.18262 13.2965H12.1826" stroke="#33363F" stroke-width="2" stroke-linecap="round"/>
<path d="M8.18262 9.29651H15.1826" stroke="#33363F" stroke-width="2" stroke-linecap="round"/>
<circle cx="18.1826" cy="15.2965" r="1" stroke="#33363F" stroke-width="2"/>
<path d="M20.1826 20.2965C20.1826 20.2965 19.6826 19.2965 18.1826 19.2965C16.6826 19.2965 16.1826 20.2965 16.1826 20.2965" stroke="#33363F" stroke-width="2" stroke-linecap="round"/>
</svg>
