<svg width="25" height="25" viewBox="0 0 25 25" fill="none" xmlns="http://www.w3.org/2000/svg">
<path d="M19.1826 11.8141V9.01415C19.1826 7.89404 19.1826 7.33399 18.9646 6.90617C18.7729 6.52984 18.4669 6.22388 18.0906 6.03213C17.6628 5.81415 17.1027 5.81415 15.9826 5.81415H7.38262C6.26251 5.81415 5.70246 5.81415 5.27464 6.03213C4.89831 6.22388 4.59235 6.52984 4.4006 6.90617C4.18262 7.33399 4.18262 7.89404 4.18262 9.01415V14.6141C4.18262 15.7343 4.18262 16.2943 4.4006 16.7221C4.59235 17.0985 4.89831 17.4044 5.27464 17.5962C5.70246 17.8141 6.26251 17.8141 7.38262 17.8141H14.1826" stroke="#33363F" stroke-width="2" stroke-linecap="round"/>
<path d="M8.18262 13.8141H12.1826" stroke="#33363F" stroke-width="2" stroke-linecap="round"/>
<path d="M8.18262 9.81415H15.1826" stroke="#33363F" stroke-width="2" stroke-linecap="round"/>
<circle cx="18.1826" cy="15.8141" r="1" stroke="#33363F" stroke-width="2"/>
<path d="M20.1826 20.8141C20.1826 20.8141 19.6826 19.8141 18.1826 19.8141C16.6826 19.8141 16.1826 20.8141 16.1826 20.8141" stroke="#33363F" stroke-width="2" stroke-linecap="round"/>
</svg>
