<svg width="25" height="25" viewBox="0 0 25 25" fill="none" xmlns="http://www.w3.org/2000/svg">
<path d="M19.1826 11.5272V8.72722C19.1826 7.60712 19.1826 7.04706 18.9646 6.61924C18.7729 6.24292 18.4669 5.93696 18.0906 5.74521C17.6628 5.52722 17.1027 5.52722 15.9826 5.52722H7.38262C6.26251 5.52722 5.70246 5.52722 5.27464 5.74521C4.89831 5.93696 4.59235 6.24292 4.4006 6.61924C4.18262 7.04706 4.18262 7.60712 4.18262 8.72722V14.3272C4.18262 15.4473 4.18262 16.0074 4.4006 16.4352C4.59235 16.8115 4.89831 17.1175 5.27464 17.3092C5.70246 17.5272 6.26251 17.5272 7.38262 17.5272H14.1826" stroke="#33363F" stroke-width="2" stroke-linecap="round"/>
<path d="M8.18262 13.5272H12.1826" stroke="#33363F" stroke-width="2" stroke-linecap="round"/>
<path d="M8.18262 9.52722H15.1826" stroke="#33363F" stroke-width="2" stroke-linecap="round"/>
<circle cx="18.1826" cy="15.5272" r="1" stroke="#33363F" stroke-width="2"/>
<path d="M20.1826 20.5272C20.1826 20.5272 19.6826 19.5272 18.1826 19.5272C16.6826 19.5272 16.1826 20.5272 16.1826 20.5272" stroke="#33363F" stroke-width="2" stroke-linecap="round"/>
</svg>
