<svg width="25" height="25" viewBox="0 0 25 25" fill="none" xmlns="http://www.w3.org/2000/svg">
<path d="M19.6602 11.814V9.01397C19.6602 7.89386 19.6602 7.33381 19.4422 6.90598C19.2504 6.52966 18.9445 6.2237 18.5681 6.03195C18.1403 5.81396 17.5803 5.81396 16.4602 5.81396H7.86016C6.74005 5.81396 6.18 5.81396 5.75218 6.03195C5.37585 6.2237 5.06989 6.52966 4.87814 6.90598C4.66016 7.33381 4.66016 7.89386 4.66016 9.01396V14.614C4.66016 15.7341 4.66016 16.2941 4.87814 16.7219C5.06989 17.0983 5.37585 17.4042 5.75218 17.596C6.18 17.814 6.74005 17.814 7.86016 17.814H14.6602" stroke="#33363F" stroke-width="2" stroke-linecap="round"/>
<path d="M8.66016 13.814H12.6602" stroke="#33363F" stroke-width="2" stroke-linecap="round"/>
<path d="M8.66016 9.81396H15.6602" stroke="#33363F" stroke-width="2" stroke-linecap="round"/>
<circle cx="18.6602" cy="15.814" r="1" stroke="#33363F" stroke-width="2"/>
<path d="M20.6602 20.814C20.6602 20.814 20.1602 19.814 18.6602 19.814C17.1602 19.814 16.6602 20.814 16.6602 20.814" stroke="#33363F" stroke-width="2" stroke-linecap="round"/>
</svg>
