<svg width="25" height="25" viewBox="0 0 25 25" fill="none" xmlns="http://www.w3.org/2000/svg">
<path d="M2.18262 12.584L1.40175 11.9593L0.901992 12.584L1.40175 13.2087L2.18262 12.584ZM11.1826 13.584C11.7349 13.584 12.1826 13.1363 12.1826 12.584C12.1826 12.0317 11.7349 11.584 11.1826 11.584V13.584ZM5.40175 6.95929L1.40175 11.9593L2.96349 13.2087L6.96349 8.20868L5.40175 6.95929ZM1.40175 13.2087L5.40175 18.2087L6.96349 16.9593L2.96349 11.9593L1.40175 13.2087ZM2.18262 13.584H11.1826V11.584H2.18262V13.584Z" fill="#33363F"/>
<path d="M10.1826 8.71592V7.97249C10.1826 6.35415 10.1826 5.54498 10.6566 4.98549C11.1305 4.426 11.9287 4.29297 13.525 4.02692L15.1962 3.74838C18.4393 3.20787 20.0609 2.93761 21.1217 3.83631C22.1826 4.735 22.1826 6.37892 22.1826 9.66675V15.5012C22.1826 18.7891 22.1826 20.433 21.1217 21.3317C20.0609 22.2304 18.4393 21.9601 15.1962 21.4196L13.525 21.1411C11.9287 20.875 11.1305 20.742 10.6566 20.1825C10.1826 19.623 10.1826 18.8138 10.1826 17.1955V16.65" stroke="#33363F" stroke-width="2"/>
</svg>
