<svg width="25" height="25" viewBox="0 0 25 25" fill="none" xmlns="http://www.w3.org/2000/svg">
<rect x="0.682617" y="1.33362" width="23" height="23" stroke="black"/>
<path d="M2.18262 12.8336L1.40175 12.2089L0.901992 12.8336L1.40175 13.4583L2.18262 12.8336ZM11.1826 13.8336C11.7349 13.8336 12.1826 13.3859 12.1826 12.8336C12.1826 12.2813 11.7349 11.8336 11.1826 11.8336V13.8336ZM5.40175 7.20892L1.40175 12.2089L2.96349 13.4583L6.96349 8.45831L5.40175 7.20892ZM1.40175 13.4583L5.40175 18.4583L6.96349 17.2089L2.96349 12.2089L1.40175 13.4583ZM2.18262 13.8336H11.1826V11.8336H2.18262V13.8336Z" fill="white"/>
<path d="M10.1826 8.96555V8.22213C10.1826 6.60378 10.1826 5.79461 10.6566 5.23512C11.1305 4.67563 11.9287 4.5426 13.525 4.27655L15.1962 3.99802C18.4393 3.4575 20.0609 3.18724 21.1217 4.08594C22.1826 4.98464 22.1826 6.62855 22.1826 9.91638V15.7509C22.1826 19.0387 22.1826 20.6826 21.1217 21.5813C20.0609 22.48 18.4393 22.2097 15.1962 21.6692L13.525 21.3907C11.9287 21.1246 11.1305 20.9916 10.6566 20.4321C10.1826 19.8726 10.1826 19.0635 10.1826 17.4451V16.8996" stroke="white" stroke-width="2"/>
</svg>
