<svg width="25" height="25" viewBox="0 0 25 25" fill="none" xmlns="http://www.w3.org/2000/svg">
<path d="M2.18262 12.2971L1.40175 11.6724L0.901992 12.2971L1.40175 12.9218L2.18262 12.2971ZM11.1826 13.2971C11.7349 13.2971 12.1826 12.8493 12.1826 12.2971C12.1826 11.7448 11.7349 11.2971 11.1826 11.2971V13.2971ZM5.40175 6.67236L1.40175 11.6724L2.96349 12.9218L6.96349 7.92175L5.40175 6.67236ZM1.40175 12.9218L5.40175 17.9218L6.96349 16.6724L2.96349 11.6724L1.40175 12.9218ZM2.18262 13.2971H11.1826V11.2971H2.18262V13.2971Z" fill="#33363F"/>
<path d="M10.1826 8.42899V7.68557C10.1826 6.06722 10.1826 5.25805 10.6566 4.69856C11.1305 4.13907 11.9287 4.00604 13.525 3.73999L15.1962 3.46146C18.4393 2.92094 20.0609 2.65068 21.1217 3.54938C22.1826 4.44808 22.1826 6.09199 22.1826 9.37982V15.2143C22.1826 18.5021 22.1826 20.146 21.1217 21.0447C20.0609 21.9434 18.4393 21.6732 15.1962 21.1327L13.525 20.8541C11.9287 20.5881 11.1305 20.455 10.6566 19.8956C10.1826 19.3361 10.1826 18.5269 10.1826 16.9086V16.363" stroke="#33363F" stroke-width="2"/>
</svg>
