<svg width="25" height="25" viewBox="0 0 25 25" fill="none" xmlns="http://www.w3.org/2000/svg">
<rect x="0.682617" y="1.24902" width="23" height="23" stroke="black"/>
<path d="M2.18262 12.749L1.40175 12.1243L0.901992 12.749L1.40175 13.3737L2.18262 12.749ZM11.1826 13.749C11.7349 13.749 12.1826 13.3013 12.1826 12.749C12.1826 12.1967 11.7349 11.749 11.1826 11.749V13.749ZM5.40175 7.12433L1.40175 12.1243L2.96349 13.3737L6.96349 8.37372L5.40175 7.12433ZM1.40175 13.3737L5.40175 18.3737L6.96349 17.1243L2.96349 12.1243L1.40175 13.3737ZM2.18262 13.749H11.1826V11.749H2.18262V13.749Z" fill="white"/>
<path d="M10.1826 8.88096V8.13753C10.1826 6.51919 10.1826 5.71002 10.6566 5.15053C11.1305 4.59104 11.9287 4.45801 13.525 4.19196L15.1962 3.91342C18.4393 3.37291 20.0609 3.10265 21.1217 4.00134C22.1826 4.90004 22.1826 6.54396 22.1826 9.83179V15.6663C22.1826 18.9541 22.1826 20.598 21.1217 21.4967C20.0609 22.3954 18.4393 22.1251 15.1962 21.5846L13.525 21.3061C11.9287 21.04 11.1305 20.907 10.6566 20.3475C10.1826 19.788 10.1826 18.9789 10.1826 17.3605V16.815" stroke="white" stroke-width="2"/>
</svg>
