<svg width="21" height="21" viewBox="0 0 21 21" fill="none" xmlns="http://www.w3.org/2000/svg">
<path d="M5.63232 6.82538C6.42797 6.82538 7.19104 6.50931 7.75364 5.9467C8.31625 5.38409 8.63232 4.62103 8.63232 3.82538C8.63232 3.02973 8.31625 2.26667 7.75364 1.70406C7.19104 1.14145 6.42797 0.825378 5.63232 0.825378C4.83667 0.825378 4.07361 1.14145 3.511 1.70406C2.94839 2.26667 2.63232 3.02973 2.63232 3.82538C2.63232 4.62103 2.94839 5.38409 3.511 5.9467C4.07361 6.50931 4.83667 6.82538 5.63232 6.82538ZM0.132324 9.59338C0.132324 8.61538 0.923324 7.82538 1.90032 7.82538H6.66732C6.31656 8.43354 6.13205 9.12331 6.13232 9.82538C6.13229 10.3929 6.25301 10.9539 6.48646 11.4711C6.71991 11.9883 7.06074 12.45 7.48632 12.8254H6.40032C5.83672 12.8254 5.28654 12.9973 4.82322 13.3183C4.3599 13.6392 4.0055 14.0938 3.80732 14.6214C2.30932 14.2554 1.38032 13.4384 0.833324 12.5284C0.132324 11.3614 0.132324 10.1614 0.132324 9.95238V9.59338ZM14.1323 9.82538C14.1326 9.12331 13.9481 8.43354 13.5973 7.82538H18.3643C19.3423 7.82538 20.1323 8.61638 20.1323 9.59338V9.95338C20.1323 10.1604 20.1323 11.3614 19.4323 12.5284C18.8843 13.4384 17.9553 14.2554 16.4573 14.6214C16.2591 14.0938 15.9047 13.6392 15.4414 13.3183C14.9781 12.9973 14.4279 12.8254 13.8643 12.8254H12.7783C13.2039 12.45 13.5447 11.9883 13.7782 11.4711C14.0116 10.9539 14.1324 10.3929 14.1323 9.82538ZM17.6323 3.82538C17.6323 4.62103 17.3163 5.38409 16.7536 5.9467C16.191 6.50931 15.428 6.82538 14.6323 6.82538C13.8367 6.82538 13.0736 6.50931 12.511 5.9467C11.9484 5.38409 11.6323 4.62103 11.6323 3.82538C11.6323 3.02973 11.9484 2.26667 12.511 1.70406C13.0736 1.14145 13.8367 0.825378 14.6323 0.825378C15.428 0.825378 16.191 1.14145 16.7536 1.70406C17.3163 2.26667 17.6323 3.02973 17.6323 3.82538ZM4.63232 15.5934C4.63232 14.6154 5.42332 13.8254 6.40032 13.8254H13.8643C14.8413 13.8254 15.6323 14.6164 15.6323 15.5934V15.9534C15.6323 16.1604 15.6323 17.3614 14.9323 18.5284C14.1893 19.7624 12.7453 20.8254 10.1323 20.8254C7.51932 20.8254 6.07432 19.7624 5.33232 18.5284C4.63232 17.3614 4.63232 16.1614 4.63232 15.9524V15.5934ZM10.1323 12.8254C10.5263 12.8254 10.9164 12.7478 11.2804 12.597C11.6444 12.4463 11.9751 12.2253 12.2536 11.9467C12.5322 11.6681 12.7532 11.3374 12.904 10.9734C13.0547 10.6095 13.1323 10.2193 13.1323 9.82538C13.1323 9.43141 13.0547 9.0413 12.904 8.67733C12.7532 8.31335 12.5322 7.98263 12.2536 7.70406C11.9751 7.42548 11.6444 7.2045 11.2804 7.05374C10.9164 6.90298 10.5263 6.82538 10.1323 6.82538C9.33667 6.82538 8.57361 7.14145 8.011 7.70406C7.44839 8.26667 7.13232 9.02973 7.13232 9.82538C7.13232 10.621 7.44839 11.3841 8.011 11.9467C8.57361 12.5093 9.33667 12.8254 10.1323 12.8254Z" fill="#F5F5F5"/>
</svg>
