<svg width="21" height="21" viewBox="0 0 21 21" fill="none" xmlns="http://www.w3.org/2000/svg">
<path d="M5.68262 6.7439C6.47827 6.7439 7.24133 6.42783 7.80394 5.86522C8.36655 5.30261 8.68262 4.53955 8.68262 3.7439C8.68262 2.94825 8.36655 2.18519 7.80394 1.62258C7.24133 1.05997 6.47827 0.743896 5.68262 0.743896C4.88697 0.743896 4.12391 1.05997 3.5613 1.62258C2.99869 2.18519 2.68262 2.94825 2.68262 3.7439C2.68262 4.53955 2.99869 5.30261 3.5613 5.86522C4.12391 6.42783 4.88697 6.7439 5.68262 6.7439ZM0.182617 9.5119C0.182617 8.5339 0.973617 7.7439 1.95062 7.7439H6.71762C6.36686 8.35206 6.18234 9.04183 6.18262 9.7439C6.18259 10.3114 6.3033 10.8724 6.53675 11.3896C6.7702 11.9069 7.11104 12.3685 7.53662 12.7439H6.45062C5.88702 12.7439 5.33683 12.9159 4.87351 13.2368C4.4102 13.5577 4.05579 14.0123 3.85762 14.5399C2.35962 14.1739 1.43062 13.3569 0.883617 12.4469C0.182617 11.2799 0.182617 10.0799 0.182617 9.8709V9.5119ZM14.1826 9.7439C14.1829 9.04183 13.9984 8.35206 13.6476 7.7439H18.4146C19.3926 7.7439 20.1826 8.5349 20.1826 9.5119V9.8719C20.1826 10.0789 20.1826 11.2799 19.4826 12.4469C18.9346 13.3569 18.0056 14.1739 16.5076 14.5399C16.3094 14.0123 15.955 13.5577 15.4917 13.2368C15.0284 12.9159 14.4782 12.7439 13.9146 12.7439H12.8286C13.2542 12.3685 13.595 11.9069 13.8285 11.3896C14.0619 10.8724 14.1826 10.3114 14.1826 9.7439ZM17.6826 3.7439C17.6826 4.53955 17.3665 5.30261 16.8039 5.86522C16.2413 6.42783 15.4783 6.7439 14.6826 6.7439C13.887 6.7439 13.1239 6.42783 12.5613 5.86522C11.9987 5.30261 11.6826 4.53955 11.6826 3.7439C11.6826 2.94825 11.9987 2.18519 12.5613 1.62258C13.1239 1.05997 13.887 0.743896 14.6826 0.743896C15.4783 0.743896 16.2413 1.05997 16.8039 1.62258C17.3665 2.18519 17.6826 2.94825 17.6826 3.7439ZM4.68262 15.5119C4.68262 14.5339 5.47362 13.7439 6.45062 13.7439H13.9146C14.8916 13.7439 15.6826 14.5349 15.6826 15.5119V15.8719C15.6826 16.0789 15.6826 17.2799 14.9826 18.4469C14.2396 19.6809 12.7956 20.7439 10.1826 20.7439C7.56962 20.7439 6.12462 19.6809 5.38262 18.4469C4.68262 17.2799 4.68262 16.0799 4.68262 15.8709V15.5119ZM10.1826 12.7439C10.5766 12.7439 10.9667 12.6663 11.3307 12.5155C11.6946 12.3648 12.0254 12.1438 12.3039 11.8652C12.5825 11.5866 12.8035 11.2559 12.9543 10.8919C13.105 10.528 13.1826 10.1379 13.1826 9.7439C13.1826 9.34993 13.105 8.95982 12.9543 8.59585C12.8035 8.23187 12.5825 7.90115 12.3039 7.62258C12.0254 7.344 11.6946 7.12302 11.3307 6.97226C10.9667 6.82149 10.5766 6.7439 10.1826 6.7439C9.38697 6.7439 8.62391 7.05997 8.0613 7.62258C7.49869 8.18518 7.18262 8.94825 7.18262 9.7439C7.18262 10.5395 7.49869 11.3026 8.0613 11.8652C8.62391 12.4278 9.38697 12.7439 10.1826 12.7439Z" fill="#F5F5F5"/>
</svg>
