<svg width="21" height="21" viewBox="0 0 21 21" fill="none" xmlns="http://www.w3.org/2000/svg">
<path d="M7.93281 20.5834L7.53281 17.3834C7.31615 17.3001 7.11215 17.2001 6.92081 17.0834C6.72948 16.9668 6.54181 16.8418 6.35781 16.7084L3.38281 17.9584L0.632812 13.2084L3.20781 11.2584C3.19115 11.1418 3.18281 11.0294 3.18281 10.9214V10.2464C3.18281 10.1378 3.19115 10.0251 3.20781 9.90843L0.632812 7.95844L3.38281 3.20844L6.35781 4.45844C6.54115 4.3251 6.73281 4.2001 6.93281 4.08344C7.13281 3.96677 7.33281 3.86677 7.53281 3.78343L7.93281 0.583435H13.4328L13.8328 3.78343C14.0495 3.86677 14.2538 3.96677 14.4458 4.08344C14.6378 4.2001 14.8251 4.3251 15.0078 4.45844L17.9828 3.20844L20.7328 7.95844L18.1578 9.90843C18.1745 10.0251 18.1828 10.1378 18.1828 10.2464V10.9204C18.1828 11.0291 18.1661 11.1418 18.1328 11.2584L20.7078 13.2084L17.9578 17.9584L15.0078 16.7084C14.8245 16.8418 14.6328 16.9668 14.4328 17.0834C14.2328 17.2001 14.0328 17.3001 13.8328 17.3834L13.4328 20.5834H7.93281ZM10.7328 14.0834C11.6995 14.0834 12.5245 13.7418 13.2078 13.0584C13.8911 12.3751 14.2328 11.5501 14.2328 10.5834C14.2328 9.61677 13.8911 8.79177 13.2078 8.10843C12.5245 7.4251 11.6995 7.08344 10.7328 7.08344C9.74948 7.08344 8.92015 7.4251 8.24481 8.10843C7.56948 8.79177 7.23215 9.61677 7.23281 10.5834C7.23348 11.5501 7.57115 12.3751 8.24581 13.0584C8.92048 13.7418 9.74948 14.0834 10.7328 14.0834Z" fill="#F5F5F5"/>
</svg>
