<svg width="20" height="21" viewBox="0 0 20 21" fill="none" xmlns="http://www.w3.org/2000/svg">
<path d="M8.8577 3.39576V7.27576C8.85771 7.59703 8.79426 7.91513 8.67102 8.21182C8.54777 8.50851 8.36715 8.77794 8.13951 9.00465C7.91188 9.23135 7.64171 9.41087 7.34452 9.5329C7.04733 9.65494 6.72897 9.71708 6.4077 9.71576H2.5477C2.22731 9.7177 1.90981 9.65493 1.61426 9.53121C1.3187 9.40749 1.05117 9.22537 0.827704 8.99576C0.601271 8.77043 0.421896 8.50233 0.300007 8.20705C0.178119 7.91177 0.11615 7.5952 0.117704 7.27576V3.40576C0.117699 2.76036 0.373396 2.14125 0.828824 1.68394C1.28425 1.22664 1.90231 0.968404 2.5477 0.965759H6.4177C6.73777 0.966067 7.05459 1.02986 7.34983 1.15345C7.64507 1.27704 7.91287 1.45797 8.1377 1.68576C8.36564 1.9084 8.54677 2.17438 8.67041 2.46804C8.79406 2.7617 8.85774 3.07713 8.8577 3.39576ZM19.6077 3.40576V7.27576C19.6025 7.91956 19.3451 8.53567 18.8908 8.99185C18.4365 9.44803 17.8215 9.70793 17.1777 9.71576H13.2977C12.6509 9.7118 12.0308 9.45731 11.5677 9.00576C11.3414 8.77825 11.1622 8.50834 11.0404 8.21148C10.9186 7.91462 10.8565 7.59664 10.8577 7.27576V3.40576C10.8563 3.08544 10.9194 2.76812 11.043 2.47265C11.1667 2.17717 11.3486 1.90958 11.5777 1.68576C11.8025 1.45797 12.0703 1.27704 12.3656 1.15345C12.6608 1.02986 12.9776 0.966067 13.2977 0.965759H17.1677C17.8132 0.970986 18.4308 1.22974 18.8873 1.6862C19.3437 2.14266 19.6025 2.76025 19.6077 3.40576ZM19.6077 14.1558V18.0258C19.6025 18.6696 19.3451 19.2857 18.8908 19.7418C18.4365 20.198 17.8215 20.4579 17.1777 20.4658H13.2977C12.6468 20.4724 12.019 20.2248 11.5477 19.7758C11.3205 19.5489 11.1407 19.2791 11.0188 18.9821C10.897 18.6851 10.8354 18.3668 10.8377 18.0458V14.1758C10.8364 13.8555 10.8994 13.5381 11.0231 13.2427C11.1468 12.9472 11.3286 12.6796 11.5577 12.4558C11.7826 12.228 12.0504 12.0471 12.3456 11.9235C12.6408 11.7999 12.9576 11.7361 13.2777 11.7358H17.1477C17.7932 11.741 18.4108 11.9997 18.8673 12.4562C19.3237 12.9127 19.5825 13.5302 19.5877 14.1758L19.6077 14.1558ZM8.8577 14.1658V18.0358C8.84984 18.6813 8.58856 19.2978 8.13023 19.7524C7.67189 20.207 7.05324 20.4632 6.4077 20.4658H2.5477C2.22822 20.4671 1.91164 20.4051 1.61622 20.2835C1.3208 20.1618 1.0524 19.9829 0.826485 19.757C0.600575 19.5311 0.421633 19.2627 0.299982 18.9672C0.178332 18.6718 0.116381 18.3552 0.117704 18.0358V14.1658C0.120281 13.5202 0.376497 12.9016 0.831088 12.4432C1.28568 11.9849 1.90221 11.7236 2.5477 11.7158H6.4177C7.06612 11.7213 7.68679 11.9797 8.1477 12.4358C8.6038 12.8959 8.85908 13.5179 8.8577 14.1658Z" fill="white"/>
</svg>
