<svg width="16" height="12" viewBox="0 0 16 12" fill="none" xmlns="http://www.w3.org/2000/svg">
<path d="M8.08644 0.126648C3.7979 0.126648 0.323242 2.71392 0.323242 5.90723C0.323242 9.10053 3.7979 11.6878 8.08644 11.6878C12.375 11.6878 15.8496 9.10053 15.8496 5.90723C15.8496 2.71392 12.375 0.126648 8.08644 0.126648ZM9.87385 8.28705L7.11291 6.79296C7.01587 6.73935 6.95952 6.65544 6.95952 6.56686V2.644C6.95952 2.49016 7.12856 2.36429 7.33516 2.36429H8.83771C9.04432 2.36429 9.21335 2.49016 9.21335 2.644V5.85362L11.2011 6.93048C11.3701 7.02139 11.4046 7.1962 11.2825 7.32207L10.3997 8.22645C10.2777 8.34999 10.0429 8.37796 9.87385 8.28705Z" fill="black"/>
</svg>
