<svg width="21" height="21" viewBox="0 0 21 21" fill="none" xmlns="http://www.w3.org/2000/svg">
<path d="M7.93257 20.5834L7.53257 17.3834C7.3159 17.3001 7.1119 17.2001 6.92057 17.0834C6.72924 16.9668 6.54157 16.8418 6.35757 16.7084L3.38257 17.9584L0.632568 13.2084L3.20757 11.2584C3.1909 11.1418 3.18257 11.0294 3.18257 10.9214V10.2464C3.18257 10.1378 3.1909 10.0251 3.20757 9.90843L0.632568 7.95844L3.38257 3.20844L6.35757 4.45844C6.5409 4.3251 6.73257 4.2001 6.93257 4.08344C7.13257 3.96677 7.33257 3.86677 7.53257 3.78343L7.93257 0.583435H13.4326L13.8326 3.78343C14.0492 3.86677 14.2536 3.96677 14.4456 4.08344C14.6376 4.2001 14.8249 4.3251 15.0076 4.45844L17.9826 3.20844L20.7326 7.95844L18.1576 9.90843C18.1742 10.0251 18.1826 10.1378 18.1826 10.2464V10.9204C18.1826 11.0291 18.1659 11.1418 18.1326 11.2584L20.7076 13.2084L17.9576 17.9584L15.0076 16.7084C14.8242 16.8418 14.6326 16.9668 14.4326 17.0834C14.2326 17.2001 14.0326 17.3001 13.8326 17.3834L13.4326 20.5834H7.93257ZM10.7326 14.0834C11.6992 14.0834 12.5242 13.7418 13.2076 13.0584C13.8909 12.3751 14.2326 11.5501 14.2326 10.5834C14.2326 9.61677 13.8909 8.79177 13.2076 8.10843C12.5242 7.4251 11.6992 7.08344 10.7326 7.08344C9.74924 7.08344 8.9199 7.4251 8.24457 8.10843C7.56924 8.79177 7.2319 9.61677 7.23257 10.5834C7.23324 11.5501 7.5709 12.3751 8.24557 13.0584C8.92023 13.7418 9.74924 14.0834 10.7326 14.0834Z" fill="#F5F5F5"/>
</svg>
