<svg width="21" height="15" viewBox="0 0 21 15" fill="none" xmlns="http://www.w3.org/2000/svg">
<path d="M13.7567 0.566773C15.5931 0.565877 17.3562 1.2866 18.6661 2.57358C19.9759 3.86055 20.7276 5.61071 20.7591 7.44676C20.7906 9.28281 20.0994 11.0577 18.8344 12.3888C17.5694 13.72 15.832 14.5007 13.9967 14.5628L13.7567 14.5668H7.76074C5.92442 14.5677 4.16128 13.8469 2.85141 12.56C1.54154 11.273 0.789839 9.52284 0.758354 7.68679C0.72687 5.85074 1.41812 4.07584 2.6831 2.74471C3.94808 1.41359 5.68547 0.632837 7.52074 0.570773L7.75974 0.566773H13.7567ZM13.5087 8.06677C13.1772 8.06677 12.8593 8.19847 12.6249 8.43289C12.3904 8.66731 12.2587 8.98525 12.2587 9.31677C12.2587 9.64829 12.3904 9.96624 12.6249 10.2007C12.8593 10.4351 13.1772 10.5668 13.5087 10.5668C13.8403 10.5668 14.1582 10.4351 14.3926 10.2007C14.627 9.96624 14.7587 9.64829 14.7587 9.31677C14.7587 8.98525 14.627 8.66731 14.3926 8.43289C14.1582 8.19847 13.8403 8.06677 13.5087 8.06677ZM6.75874 4.56677C6.5775 4.56678 6.4024 4.63242 6.26581 4.75154C6.12922 4.87066 6.04039 5.03522 6.01574 5.21477L6.00874 5.31677V6.81477H4.50874C4.31736 6.81283 4.13248 6.88412 3.99196 7.01404C3.85143 7.14397 3.76589 7.32271 3.75286 7.51365C3.73982 7.70459 3.80027 7.89329 3.92184 8.04111C4.0434 8.18894 4.21688 8.28469 4.40674 8.30877L4.50874 8.31577L6.00874 8.31477V9.81677C6.0088 10.0068 6.08099 10.1897 6.21071 10.3286C6.34044 10.4674 6.51804 10.5518 6.70762 10.5648C6.8972 10.5778 7.08463 10.5183 7.23204 10.3983C7.37945 10.2784 7.47584 10.107 7.50174 9.91877L7.50874 9.81677V8.31477H9.00874C9.19758 8.313 9.37879 8.24006 9.5162 8.11052C9.65361 7.98098 9.73709 7.80436 9.74997 7.61596C9.76285 7.42756 9.70418 7.24123 9.58568 7.09419C9.46718 6.94715 9.29758 6.85023 9.11074 6.82277L9.00874 6.81577L7.50874 6.81477V5.31677C7.50874 5.11786 7.42972 4.9271 7.28907 4.78644C7.14842 4.64579 6.95765 4.56677 6.75874 4.56677ZM15.5087 4.56677C15.1772 4.56677 14.8593 4.69847 14.6249 4.93289C14.3904 5.16731 14.2587 5.48525 14.2587 5.81677C14.2587 6.14829 14.3904 6.46624 14.6249 6.70066C14.8593 6.93508 15.1772 7.06677 15.5087 7.06677C15.8403 7.06677 16.1582 6.93508 16.3926 6.70066C16.627 6.46624 16.7587 6.14829 16.7587 5.81677C16.7587 5.48525 16.627 5.16731 16.3926 4.93289C16.1582 4.69847 15.8403 4.56677 15.5087 4.56677Z" fill="#F5F5F5"/>
</svg>
