<svg width="20" height="14" viewBox="0 0 20 14" fill="none" xmlns="http://www.w3.org/2000/svg">
<path d="M14.3748 0.737305H4.94827C4.17132 0.737157 3.40639 0.992601 2.72159 1.4809C2.03679 1.96919 1.45336 2.67518 1.02326 3.53602C0.59315 4.39686 0.329708 5.38583 0.256384 6.41488C0.18306 7.44394 0.30213 8.48115 0.602992 9.43418C0.903855 10.3872 1.37717 11.2265 1.98081 11.8773C2.58445 12.5281 3.29967 12.9702 4.06281 13.1643C4.82595 13.3583 5.61332 13.2984 6.35482 12.9897C7.09632 12.681 7.76895 12.1332 8.31282 11.395H11.0082C11.552 12.1331 12.2246 12.6809 12.966 12.9896C13.7074 13.2983 14.4947 13.3583 15.2577 13.1644C16.0208 12.9704 16.736 12.5285 17.3396 11.8779C17.9433 11.2273 18.4167 10.3883 18.7177 9.43544C19.0186 8.48261 19.1379 7.44556 19.0648 6.41659C18.9917 5.38762 18.7285 4.39866 18.2986 3.53773C17.8688 2.6768 17.2856 1.97062 16.601 1.48203C15.9165 0.993441 15.1517 0.737609 14.3748 0.737305ZM7.54001 7.47672C7.54001 7.60143 7.50278 7.72102 7.4365 7.8092C7.37022 7.89738 7.28032 7.94691 7.18659 7.94691H5.65511V9.98441C5.65511 10.1091 5.61788 10.2287 5.5516 10.3169C5.48532 10.4051 5.39543 10.4546 5.30169 10.4546H4.59486C4.50112 10.4546 4.41123 10.4051 4.34495 10.3169C4.27867 10.2287 4.24144 10.1091 4.24144 9.98441V7.94691H2.70996C2.61622 7.94691 2.52633 7.89738 2.46005 7.8092C2.39377 7.72102 2.35654 7.60143 2.35654 7.47672V6.53634C2.35654 6.41164 2.39377 6.29204 2.46005 6.20386C2.52633 6.11568 2.61622 6.06615 2.70996 6.06615H4.24144V4.02865C4.24144 3.90395 4.27867 3.78435 4.34495 3.69617C4.41123 3.60799 4.50112 3.55846 4.59486 3.55846H5.30169C5.39543 3.55846 5.48532 3.60799 5.5516 3.69617C5.61788 3.78435 5.65511 3.90395 5.65511 4.02865V6.06615H7.18659C7.28032 6.06615 7.37022 6.11568 7.4365 6.20386C7.50278 6.29204 7.54001 6.41164 7.54001 6.53634V7.47672ZM13.9015 10.4546C13.6685 10.4546 13.4408 10.3627 13.2471 10.1905C13.0533 10.0182 12.9023 9.77347 12.8132 9.48708C12.724 9.20069 12.7007 8.88556 12.7461 8.58153C12.7916 8.2775 12.9038 7.99824 13.0685 7.77905C13.2333 7.55985 13.4432 7.41058 13.6717 7.35011C13.9002 7.28963 14.1371 7.32067 14.3524 7.4393C14.5676 7.55792 14.7516 7.75881 14.8811 8.01655C15.0105 8.27429 15.0796 8.57731 15.0796 8.8873C15.0796 9.30297 14.9555 9.70162 14.7346 9.99555C14.5136 10.2895 14.214 10.4546 13.9015 10.4546ZM15.7864 6.69307C15.5534 6.69307 15.3257 6.60115 15.1319 6.42893C14.9382 6.25671 14.7872 6.01193 14.6981 5.72555C14.6089 5.43916 14.5856 5.12402 14.631 4.82C14.6765 4.51597 14.7887 4.2367 14.9534 4.01751C15.1182 3.79832 15.3281 3.64905 15.5566 3.58857C15.7851 3.5281 16.022 3.55913 16.2373 3.67776C16.4525 3.79639 16.6365 3.99727 16.766 4.25501C16.8954 4.51276 16.9645 4.81578 16.9645 5.12576C16.9645 5.54144 16.8404 5.94009 16.6195 6.23402C16.3985 6.52794 16.0989 6.69307 15.7864 6.69307Z" fill="black"/>
</svg>
