<svg width="21" height="21" viewBox="0 0 21 21" fill="none" xmlns="http://www.w3.org/2000/svg">
<path d="M7.33223 20.21L6.93223 17.01C6.71556 16.9267 6.51156 16.8267 6.32023 16.71C6.12889 16.5934 5.94123 16.4684 5.75723 16.335L2.78223 17.585L0.0322266 12.835L2.60723 10.885C2.59056 10.7684 2.58223 10.656 2.58223 10.548V9.87302C2.58223 9.76436 2.59056 9.65169 2.60723 9.53502L0.0322266 7.58502L2.78223 2.83502L5.75723 4.08502C5.94056 3.95169 6.13223 3.82669 6.33223 3.71002C6.53223 3.59336 6.73223 3.49336 6.93223 3.41002L7.33223 0.210022H12.8322L13.2322 3.41002C13.4489 3.49336 13.6532 3.59336 13.8452 3.71002C14.0372 3.82669 14.2246 3.95169 14.4072 4.08502L17.3822 2.83502L20.1322 7.58502L17.5572 9.53502C17.5739 9.65169 17.5822 9.76436 17.5822 9.87302V10.547C17.5822 10.6557 17.5656 10.7684 17.5322 10.885L20.1072 12.835L17.3572 17.585L14.4072 16.335C14.2239 16.4684 14.0322 16.5934 13.8322 16.71C13.6322 16.8267 13.4322 16.9267 13.2322 17.01L12.8322 20.21H7.33223ZM10.1322 13.71C11.0989 13.71 11.9239 13.3684 12.6072 12.685C13.2906 12.0017 13.6322 11.1767 13.6322 10.21C13.6322 9.24336 13.2906 8.41835 12.6072 7.73502C11.9239 7.05169 11.0989 6.71002 10.1322 6.71002C9.14889 6.71002 8.31956 7.05169 7.64423 7.73502C6.96889 8.41835 6.63156 9.24336 6.63223 10.21C6.63289 11.1767 6.97056 12.0017 7.64523 12.685C8.31989 13.3684 9.14889 13.71 10.1322 13.71Z" fill="#F5F5F5"/>
</svg>
