<svg width="25" height="25" viewBox="0 0 25 25" fill="none" xmlns="http://www.w3.org/2000/svg">
<path d="M9.49482 2.25312C7.68847 1.21828 5.16368 0.711362 1.78346 0.693365C1.46467 0.688168 1.15214 0.79971 0.887538 1.01311C0.67035 1.18926 0.492563 1.42675 0.369815 1.70469C0.247067 1.98263 0.18312 2.29251 0.183596 2.60706V19.7703C0.183596 20.9306 0.871539 21.8058 1.78346 21.8058C5.33667 21.8058 8.90087 22.2042 11.0357 24.6254C11.0649 24.6587 11.1016 24.6809 11.1413 24.6893C11.1809 24.6978 11.2217 24.6921 11.2587 24.6729C11.2957 24.6537 11.3271 24.6219 11.3492 24.5815C11.3712 24.5411 11.3829 24.4937 11.3827 24.4454V4.22201C11.3827 4.08557 11.3584 3.9507 11.3113 3.82652C11.2642 3.70233 11.1954 3.59171 11.1097 3.50212C10.6207 3.0005 10.0775 2.58037 9.49482 2.25312ZM23.4776 1.01131C23.2129 0.798441 22.9004 0.687522 22.5817 0.693365C19.2015 0.711362 16.6767 1.21588 14.8704 2.25312C14.2877 2.57978 13.7444 2.99908 13.255 3.49972C13.1694 3.58944 13.1008 3.7001 13.0538 3.82427C13.0068 3.94843 12.9825 4.08323 12.9825 4.21961V24.4442C12.9825 24.4906 12.9939 24.5361 13.0153 24.5747C13.0367 24.6134 13.0672 24.6437 13.1028 24.6617C13.1385 24.6797 13.1778 24.6846 13.2158 24.6759C13.2538 24.6672 13.2889 24.6453 13.3165 24.6128C14.5999 23.083 16.8522 21.804 22.5837 21.8046C23.008 21.8046 23.415 21.6024 23.715 21.2424C24.015 20.8823 24.1836 20.3941 24.1836 19.8849V2.60766C24.1842 2.29249 24.1201 1.98199 23.997 1.70358C23.8738 1.42517 23.6955 1.18742 23.4776 1.01131Z" fill="white"/>
</svg>
