<svg width="16" height="12" viewBox="0 0 16 12" fill="none" xmlns="http://www.w3.org/2000/svg">
<path d="M7.99366 0.364624C3.70512 0.364624 0.230469 2.9519 0.230469 6.1452C0.230469 9.33851 3.70512 11.9258 7.99366 11.9258C12.2822 11.9258 15.7569 9.33851 15.7569 6.1452C15.7569 2.9519 12.2822 0.364624 7.99366 0.364624ZM9.78108 8.52503L7.02013 7.03094C6.92309 6.97733 6.86675 6.89341 6.86675 6.80484V2.88197C6.86675 2.72813 7.03579 2.60227 7.24239 2.60227H8.74494C8.95154 2.60227 9.12058 2.72813 9.12058 2.88197V6.09159L11.1083 7.16846C11.2774 7.25936 11.3118 7.43418 11.1897 7.56005L10.307 8.46443C10.1849 8.58796 9.95011 8.61593 9.78108 8.52503Z" fill="black"/>
</svg>
