<svg width="17" height="13" viewBox="0 0 17 13" fill="none" xmlns="http://www.w3.org/2000/svg">
<path d="M8.3379 0.751282C4.04936 0.751282 0.574707 3.33856 0.574707 6.53186C0.574707 9.72516 4.04936 12.3124 8.3379 12.3124C12.6264 12.3124 16.1011 9.72516 16.1011 6.53186C16.1011 3.33856 12.6264 0.751282 8.3379 0.751282ZM10.1253 8.91169L7.36437 7.41759C7.26733 7.36398 7.21099 7.28007 7.21099 7.1915V3.26863C7.21099 3.11479 7.38002 2.98893 7.58663 2.98893H9.08918C9.29578 2.98893 9.46482 3.11479 9.46482 3.26863V6.47825L11.4526 7.55512C11.6216 7.64602 11.656 7.82084 11.534 7.9467L10.6512 8.85108C10.5291 8.97462 10.2944 9.00259 10.1253 8.91169Z" fill="black"/>
</svg>
