<svg width="20" height="14" viewBox="0 0 20 14" fill="none" xmlns="http://www.w3.org/2000/svg">
<path d="M14.8968 0.902283H5.47025C4.69329 0.902135 3.92836 1.15758 3.24356 1.64587C2.55876 2.13417 1.97534 2.84016 1.54523 3.701C1.11512 4.56183 0.85168 5.55081 0.778357 6.57986C0.705033 7.60892 0.824103 8.64613 1.12497 9.59916C1.42583 10.5522 1.89915 11.3914 2.50279 12.0422C3.10642 12.693 3.82165 13.1351 4.58478 13.3292C5.34792 13.5233 6.13529 13.4633 6.87679 13.1547C7.6183 12.846 8.29092 12.2982 8.83479 11.56H11.5302C12.074 12.2981 12.7465 12.8459 13.488 13.1546C14.2294 13.4633 15.0166 13.5233 15.7797 13.3294C16.5428 13.1354 17.258 12.6935 17.8616 12.0429C18.4653 11.3923 18.9386 10.5533 19.2396 9.60042C19.5406 8.64759 19.6599 7.61054 19.5868 6.58157C19.5137 5.5526 19.2505 4.56364 18.8206 3.70271C18.3908 2.84178 17.8076 2.1356 17.123 1.64701C16.4384 1.15842 15.6737 0.902587 14.8968 0.902283ZM8.06198 7.6417C8.06198 7.7664 8.02475 7.886 7.95847 7.97418C7.89219 8.06236 7.8023 8.11189 7.70856 8.11189H6.17708V10.1494C6.17708 10.2741 6.13985 10.3937 6.07357 10.4819C6.00729 10.57 5.9174 10.6196 5.82367 10.6196H5.11683C5.0231 10.6196 4.9332 10.57 4.86692 10.4819C4.80064 10.3937 4.76341 10.2741 4.76341 10.1494V8.11189H3.23193C3.1382 8.11189 3.0483 8.06236 2.98202 7.97418C2.91575 7.886 2.87851 7.7664 2.87851 7.6417V6.70132C2.87851 6.57661 2.91575 6.45702 2.98202 6.36884C3.0483 6.28066 3.1382 6.23112 3.23193 6.23112H4.76341V4.19363C4.76341 4.06892 4.80064 3.94933 4.86692 3.86115C4.9332 3.77297 5.0231 3.72343 5.11683 3.72343H5.82367C5.9174 3.72343 6.00729 3.77297 6.07357 3.86115C6.13985 3.94933 6.17708 4.06892 6.17708 4.19363V6.23112H7.70856C7.8023 6.23112 7.89219 6.28066 7.95847 6.36884C8.02475 6.45702 8.06198 6.57661 8.06198 6.70132V7.6417ZM14.4235 10.6196C14.1905 10.6196 13.9628 10.5277 13.769 10.3554C13.5753 10.1832 13.4243 9.93845 13.3351 9.65206C13.246 9.36567 13.2226 9.05054 13.2681 8.74651C13.3135 8.44248 13.4257 8.16322 13.5905 7.94402C13.7553 7.72483 13.9652 7.57556 14.1937 7.51509C14.4222 7.45461 14.6591 7.48565 14.8743 7.60427C15.0896 7.7229 15.2736 7.92379 15.403 8.18153C15.5325 8.43927 15.6016 8.74229 15.6016 9.05228C15.6016 9.46795 15.4775 9.8666 15.2565 10.1605C15.0356 10.4545 14.736 10.6196 14.4235 10.6196ZM16.3084 6.85805C16.0754 6.85805 15.8477 6.76613 15.6539 6.59391C15.4602 6.42169 15.3092 6.17691 15.22 5.89052C15.1309 5.60414 15.1075 5.289 15.153 4.98497C15.1984 4.68095 15.3106 4.40168 15.4754 4.18249C15.6402 3.9633 15.8501 3.81402 16.0786 3.75355C16.3071 3.69307 16.544 3.72411 16.7592 3.84274C16.9745 3.96136 17.1585 4.16225 17.2879 4.41999C17.4174 4.67773 17.4865 4.98076 17.4865 5.29074C17.4865 5.70642 17.3624 6.10507 17.1414 6.39899C16.9205 6.69292 16.6209 6.85805 16.3084 6.85805Z" fill="black"/>
</svg>
