<svg width="25" height="25" viewBox="0 0 25 25" fill="none" xmlns="http://www.w3.org/2000/svg">
<path d="M9.44355 2.40024C7.6372 1.36541 5.11241 0.858488 1.73219 0.840491C1.4134 0.835294 1.10087 0.946835 0.836268 1.16024C0.61908 1.33639 0.441294 1.57388 0.318546 1.85182C0.195798 2.12976 0.13185 2.43963 0.132327 2.75419V19.9175C0.132327 21.0777 0.820269 21.953 1.73219 21.953C5.2854 21.953 8.8496 22.3513 10.9844 24.7725C11.0136 24.8058 11.0503 24.828 11.09 24.8365C11.1296 24.8449 11.1705 24.8392 11.2074 24.82C11.2444 24.8009 11.2759 24.7691 11.2979 24.7286C11.3199 24.6882 11.3316 24.6409 11.3314 24.5925V4.36913C11.3314 4.23269 11.3071 4.09783 11.26 3.97364C11.2129 3.84945 11.1442 3.73883 11.0584 3.64925C10.5694 3.14763 10.0262 2.7275 9.44355 2.40024ZM23.4264 1.15844C23.1616 0.945566 22.8491 0.834648 22.5305 0.840491C19.1502 0.858488 16.6255 1.36301 14.8191 2.40024C14.2365 2.7269 13.6931 3.1462 13.2037 3.64685C13.1181 3.73656 13.0495 3.84722 13.0025 3.97139C12.9555 4.09556 12.9312 4.23036 12.9313 4.36673V24.5913C12.9312 24.6378 12.9426 24.6832 12.964 24.7219C12.9854 24.7606 13.0159 24.7908 13.0516 24.8088C13.0872 24.8268 13.1265 24.8318 13.1645 24.8231C13.2026 24.8144 13.2376 24.7924 13.2652 24.7599C14.5486 23.2302 16.8009 21.9512 22.5325 21.9518C22.9568 21.9518 23.3637 21.7495 23.6637 21.3895C23.9638 21.0295 24.1323 20.5412 24.1323 20.0321V2.75479C24.1329 2.43961 24.0688 2.12911 23.9457 1.8507C23.8226 1.5723 23.6442 1.33454 23.4264 1.15844Z" fill="#F5F5F5"/>
</svg>
