<svg width="21" height="15" viewBox="0 0 21 15" fill="none" xmlns="http://www.w3.org/2000/svg">
<path d="M13.0316 0.902284C14.868 0.901388 16.6311 1.62211 17.941 2.90909C19.2508 4.19606 20.0025 5.94622 20.034 7.78227C20.0655 9.61832 19.3743 11.3932 18.1093 12.7243C16.8443 14.0555 15.1069 14.8362 13.2716 14.8983L13.0316 14.9023H7.03564C5.19932 14.9032 3.43619 14.1825 2.12631 12.8955C0.816441 11.6085 0.0647409 9.85835 0.0332567 8.0223C0.0017726 6.18625 0.693026 4.41135 1.958 3.08022C3.22298 1.7491 4.96037 0.968347 6.79564 0.906284L7.03464 0.902284H13.0316ZM12.7836 8.40228C12.4521 8.40228 12.1342 8.53398 11.8998 8.7684C11.6653 9.00282 11.5336 9.32076 11.5336 9.65228C11.5336 9.9838 11.6653 10.3017 11.8998 10.5362C12.1342 10.7706 12.4521 10.9023 12.7836 10.9023C13.1152 10.9023 13.4331 10.7706 13.6675 10.5362C13.9019 10.3017 14.0336 9.9838 14.0336 9.65228C14.0336 9.32076 13.9019 9.00282 13.6675 8.7684C13.4331 8.53398 13.1152 8.40228 12.7836 8.40228ZM6.03364 4.90228C5.85241 4.90229 5.6773 4.96793 5.54071 5.08705C5.40412 5.20617 5.31529 5.37073 5.29064 5.55028L5.28364 5.65228V7.15028H3.78364C3.59227 7.14834 3.40739 7.21963 3.26686 7.34956C3.12633 7.47948 3.04079 7.65822 3.02776 7.84916C3.01472 8.0401 3.07518 8.2288 3.19674 8.37662C3.3183 8.52445 3.49178 8.6202 3.68164 8.64428L3.78364 8.65128L5.28364 8.65028V10.1523C5.2837 10.3423 5.35589 10.5252 5.48562 10.6641C5.61534 10.8029 5.79294 10.8874 5.98252 10.9003C6.1721 10.9133 6.35954 10.8538 6.50694 10.7339C6.65435 10.6139 6.75074 10.4425 6.77664 10.2543L6.78364 10.1523V8.65028H8.28364C8.47248 8.64851 8.6537 8.57557 8.7911 8.44603C8.92851 8.31649 9.01199 8.13987 9.02487 7.95147C9.03775 7.76307 8.97908 7.57674 8.86058 7.4297C8.74209 7.28266 8.57248 7.18574 8.38564 7.15828L8.28364 7.15128L6.78364 7.15028V5.65228C6.78364 5.45337 6.70463 5.26261 6.56397 5.12195C6.42332 4.9813 6.23256 4.90228 6.03364 4.90228ZM14.7836 4.90228C14.4521 4.90228 14.1342 5.03398 13.8998 5.2684C13.6653 5.50282 13.5336 5.82076 13.5336 6.15228C13.5336 6.4838 13.6653 6.80175 13.8998 7.03617C14.1342 7.27059 14.4521 7.40228 14.7836 7.40228C15.1152 7.40228 15.4331 7.27059 15.6675 7.03617C15.9019 6.80175 16.0336 6.4838 16.0336 6.15228C16.0336 5.82076 15.9019 5.50282 15.6675 5.2684C15.4331 5.03398 15.1152 4.90228 14.7836 4.90228Z" fill="#F5F5F5"/>
</svg>
