<svg width="17" height="20" viewBox="0 0 17 20" fill="none" xmlns="http://www.w3.org/2000/svg">
<path d="M16.6826 1.09143V16.0914C16.6826 16.2903 16.6036 16.4811 16.4629 16.6218C16.3223 16.7624 16.1315 16.8414 15.9326 16.8414H3.18262C2.78479 16.8414 2.40326 16.9995 2.12196 17.2808C1.84065 17.5621 1.68262 17.9436 1.68262 18.3414H14.4326C14.6315 18.3414 14.8223 18.4204 14.9629 18.5611C15.1036 18.7018 15.1826 18.8925 15.1826 19.0914C15.1826 19.2903 15.1036 19.4811 14.9629 19.6218C14.8223 19.7624 14.6315 19.8414 14.4326 19.8414H0.932617C0.733705 19.8414 0.54294 19.7624 0.402287 19.6218C0.261635 19.4811 0.182617 19.2903 0.182617 19.0914V3.34143C0.182617 2.54578 0.498688 1.78272 1.0613 1.22011C1.62391 0.657501 2.38697 0.341431 3.18262 0.341431H15.9326C16.1315 0.341431 16.3223 0.420448 16.4629 0.561101C16.6036 0.701753 16.6826 0.892518 16.6826 1.09143Z" fill="#F5F5F5"/>
</svg>
