<svg width="21" height="21" viewBox="0 0 21 21" fill="none" xmlns="http://www.w3.org/2000/svg">
<path d="M5.68262 6.74393C6.47827 6.74393 7.24133 6.42786 7.80394 5.86525C8.36655 5.30264 8.68262 4.53958 8.68262 3.74393C8.68262 2.94828 8.36655 2.18522 7.80394 1.62261C7.24133 1.06 6.47827 0.743927 5.68262 0.743927C4.88697 0.743927 4.12391 1.06 3.5613 1.62261C2.99869 2.18522 2.68262 2.94828 2.68262 3.74393C2.68262 4.53958 2.99869 5.30264 3.5613 5.86525C4.12391 6.42786 4.88697 6.74393 5.68262 6.74393ZM0.182617 9.51193C0.182617 8.53393 0.973617 7.74393 1.95062 7.74393H6.71762C6.36686 8.35209 6.18234 9.04186 6.18262 9.74393C6.18259 10.3114 6.3033 10.8724 6.53675 11.3896C6.7702 11.9069 7.11104 12.3685 7.53662 12.7439H6.45062C5.88702 12.7439 5.33683 12.9159 4.87351 13.2368C4.4102 13.5577 4.05579 14.0123 3.85762 14.5399C2.35962 14.1739 1.43062 13.3569 0.883617 12.4469C0.182617 11.2799 0.182617 10.0799 0.182617 9.87093V9.51193ZM14.1826 9.74393C14.1829 9.04186 13.9984 8.35209 13.6476 7.74393H18.4146C19.3926 7.74393 20.1826 8.53493 20.1826 9.51193V9.87193C20.1826 10.0789 20.1826 11.2799 19.4826 12.4469C18.9346 13.3569 18.0056 14.1739 16.5076 14.5399C16.3094 14.0123 15.955 13.5577 15.4917 13.2368C15.0284 12.9159 14.4782 12.7439 13.9146 12.7439H12.8286C13.2542 12.3685 13.595 11.9069 13.8285 11.3896C14.0619 10.8724 14.1826 10.3114 14.1826 9.74393ZM17.6826 3.74393C17.6826 4.53958 17.3665 5.30264 16.8039 5.86525C16.2413 6.42786 15.4783 6.74393 14.6826 6.74393C13.887 6.74393 13.1239 6.42786 12.5613 5.86525C11.9987 5.30264 11.6826 4.53958 11.6826 3.74393C11.6826 2.94828 11.9987 2.18522 12.5613 1.62261C13.1239 1.06 13.887 0.743927 14.6826 0.743927C15.4783 0.743927 16.2413 1.06 16.8039 1.62261C17.3665 2.18522 17.6826 2.94828 17.6826 3.74393ZM4.68262 15.5119C4.68262 14.5339 5.47362 13.7439 6.45062 13.7439H13.9146C14.8916 13.7439 15.6826 14.5349 15.6826 15.5119V15.8719C15.6826 16.0789 15.6826 17.2799 14.9826 18.4469C14.2396 19.6809 12.7956 20.7439 10.1826 20.7439C7.56962 20.7439 6.12462 19.6809 5.38262 18.4469C4.68262 17.2799 4.68262 16.0799 4.68262 15.8709V15.5119ZM10.1826 12.7439C10.5766 12.7439 10.9667 12.6663 11.3307 12.5156C11.6946 12.3648 12.0254 12.1438 12.3039 11.8652C12.5825 11.5867 12.8035 11.256 12.9543 10.892C13.105 10.528 13.1826 10.1379 13.1826 9.74393C13.1826 9.34996 13.105 8.95985 12.9543 8.59588C12.8035 8.2319 12.5825 7.90118 12.3039 7.62261C12.0254 7.34403 11.6946 7.12305 11.3307 6.97229C10.9667 6.82152 10.5766 6.74393 10.1826 6.74393C9.38697 6.74393 8.62391 7.06 8.0613 7.62261C7.49869 8.18522 7.18262 8.94828 7.18262 9.74393C7.18262 10.5396 7.49869 11.3026 8.0613 11.8652C8.62391 12.4279 9.38697 12.7439 10.1826 12.7439Z" fill="#F5F5F5"/>
</svg>
