<svg width="20" height="13" viewBox="0 0 20 13" fill="none" xmlns="http://www.w3.org/2000/svg">
<path d="M14.8968 0.450317H5.47025C4.69329 0.45017 3.92836 0.705614 3.24356 1.19391C2.55876 1.6822 1.97534 2.38819 1.54523 3.24903C1.11512 4.10987 0.85168 5.09884 0.778357 6.1279C0.705033 7.15695 0.824103 8.19417 1.12497 9.14719C1.42583 10.1002 1.89915 10.9395 2.50279 11.5903C3.10642 12.2411 3.82165 12.6832 4.58478 12.8773C5.34792 13.0714 6.13529 13.0114 6.87679 12.7027C7.6183 12.394 8.29092 11.8462 8.83479 11.108H11.5302C12.074 11.8461 12.7465 12.3939 13.488 12.7026C14.2294 13.0113 15.0166 13.0713 15.7797 12.8774C16.5428 12.6834 17.258 12.2415 17.8616 11.5909C18.4653 10.9403 18.9386 10.1013 19.2396 9.14846C19.5406 8.19562 19.6599 7.15857 19.5868 6.1296C19.5137 5.10064 19.2505 4.11167 18.8206 3.25075C18.3908 2.38982 17.8076 1.68363 17.123 1.19504C16.4384 0.706454 15.6737 0.450622 14.8968 0.450317ZM8.06198 7.18974C8.06198 7.31444 8.02475 7.43403 7.95847 7.52221C7.89219 7.61039 7.8023 7.65993 7.70856 7.65993H6.17708V9.69743C6.17708 9.82213 6.13985 9.94172 6.07357 10.0299C6.00729 10.1181 5.9174 10.1676 5.82367 10.1676H5.11683C5.0231 10.1676 4.9332 10.1181 4.86692 10.0299C4.80064 9.94172 4.76341 9.82213 4.76341 9.69743V7.65993H3.23193C3.1382 7.65993 3.0483 7.61039 2.98202 7.52221C2.91575 7.43403 2.87851 7.31444 2.87851 7.18974V6.24935C2.87851 6.12465 2.91575 6.00505 2.98202 5.91688C3.0483 5.8287 3.1382 5.77916 3.23193 5.77916H4.76341V3.74166C4.76341 3.61696 4.80064 3.49736 4.86692 3.40919C4.9332 3.32101 5.0231 3.27147 5.11683 3.27147H5.82367C5.9174 3.27147 6.00729 3.32101 6.07357 3.40919C6.13985 3.49736 6.17708 3.61696 6.17708 3.74166V5.77916H7.70856C7.8023 5.77916 7.89219 5.8287 7.95847 5.91688C8.02475 6.00505 8.06198 6.12465 8.06198 6.24935V7.18974ZM14.4235 10.1676C14.1905 10.1676 13.9628 10.0757 13.769 9.90348C13.5753 9.73126 13.4243 9.48648 13.3351 9.20009C13.246 8.91371 13.2226 8.59857 13.2681 8.29454C13.3135 7.99052 13.4257 7.71125 13.5905 7.49206C13.7553 7.27287 13.9652 7.12359 14.1937 7.06312C14.4222 7.00265 14.6591 7.03368 14.8743 7.15231C15.0896 7.27094 15.2736 7.47182 15.403 7.72956C15.5325 7.9873 15.6016 8.29033 15.6016 8.60031C15.6016 9.01599 15.4775 9.41464 15.2565 9.70856C15.0356 10.0025 14.736 10.1676 14.4235 10.1676ZM16.3084 6.40608C16.0754 6.40608 15.8477 6.31416 15.6539 6.14194C15.4602 5.96973 15.3092 5.72495 15.22 5.43856C15.1309 5.15217 15.1075 4.83704 15.153 4.53301C15.1984 4.22898 15.3106 3.94971 15.4754 3.73052C15.6402 3.51133 15.8501 3.36206 16.0786 3.30158C16.3071 3.24111 16.544 3.27215 16.7592 3.39077C16.9745 3.5094 17.1585 3.71028 17.2879 3.96803C17.4174 4.22577 17.4865 4.52879 17.4865 4.83878C17.4865 5.25445 17.3624 5.6531 17.1414 5.94703C16.9205 6.24096 16.6209 6.40608 16.3084 6.40608Z" fill="black"/>
</svg>
