<svg width="21" height="15" viewBox="0 0 21 15" fill="none" xmlns="http://www.w3.org/2000/svg">
<path d="M13.2348 0.566895C15.0711 0.565999 16.8342 1.28672 18.1441 2.5737C19.454 3.86067 20.2057 5.61083 20.2372 7.44688C20.2686 9.28293 19.5774 11.0578 18.3124 12.389C17.0474 13.7201 15.31 14.5008 13.4748 14.5629L13.2348 14.5669H7.23877C5.40245 14.5678 3.63931 13.8471 2.32944 12.5601C1.01957 11.2731 0.267866 9.52296 0.236382 7.68691C0.204898 5.85086 0.896151 4.07596 2.16113 2.74484C3.42611 1.41371 5.1635 0.632959 6.99877 0.570896L7.23777 0.566895H13.2348ZM12.9868 8.0669C12.6552 8.0669 12.3373 8.19859 12.1029 8.43301C11.8685 8.66743 11.7368 8.98537 11.7368 9.3169C11.7368 9.64842 11.8685 9.96636 12.1029 10.2008C12.3373 10.4352 12.6552 10.5669 12.9868 10.5669C13.3183 10.5669 13.6362 10.4352 13.8707 10.2008C14.1051 9.96636 14.2368 9.64842 14.2368 9.3169C14.2368 8.98537 14.1051 8.66743 13.8707 8.43301C13.6362 8.19859 13.3183 8.0669 12.9868 8.0669ZM6.23677 4.5669C6.05553 4.5669 5.88043 4.63254 5.74384 4.75166C5.60725 4.87079 5.51842 5.03534 5.49377 5.2149L5.48677 5.3169V6.8149H3.98677C3.79539 6.81295 3.61051 6.88424 3.46998 7.01417C3.32946 7.14409 3.24392 7.32283 3.23088 7.51377C3.21785 7.70471 3.2783 7.89341 3.39986 8.04124C3.52143 8.18906 3.6949 8.28481 3.88477 8.3089L3.98677 8.3159L5.48677 8.3149V9.8169C5.48683 10.0069 5.55901 10.1898 5.68874 10.3287C5.81847 10.4675 5.99607 10.552 6.18565 10.5649C6.37523 10.5779 6.56266 10.5184 6.71007 10.3985C6.85747 10.2785 6.95387 10.1071 6.97977 9.9189L6.98677 9.8169V8.3149H8.48677C8.6756 8.31313 8.85682 8.24019 8.99423 8.11064C9.13163 7.9811 9.21511 7.80449 9.22799 7.61608C9.24087 7.42768 9.18221 7.24135 9.06371 7.09431C8.94521 6.94727 8.77561 6.85035 8.58877 6.8229L8.48677 6.8159L6.98677 6.8149V5.3169C6.98677 5.11798 6.90775 4.92722 6.7671 4.78657C6.62645 4.64591 6.43568 4.5669 6.23677 4.5669ZM14.9868 4.5669C14.6552 4.5669 14.3373 4.69859 14.1029 4.93301C13.8685 5.16743 13.7368 5.48537 13.7368 5.8169C13.7368 6.14842 13.8685 6.46636 14.1029 6.70078C14.3373 6.9352 14.6552 7.0669 14.9868 7.0669C15.3183 7.0669 15.6362 6.9352 15.8707 6.70078C16.1051 6.46636 16.2368 6.14842 16.2368 5.8169C16.2368 5.48537 16.1051 5.16743 15.8707 4.93301C15.6362 4.69859 15.3183 4.5669 14.9868 4.5669Z" fill="#F5F5F5"/>
</svg>
