<svg width="21" height="21" viewBox="0 0 21 21" fill="none" xmlns="http://www.w3.org/2000/svg">
<path d="M9.33573 3.39582V7.27582C9.33573 7.59709 9.27229 7.9152 9.14905 8.21188C9.0258 8.50857 8.84518 8.778 8.61754 9.00471C8.3899 9.23141 8.11974 9.41093 7.82255 9.53296C7.52536 9.655 7.207 9.71714 6.88573 9.71582H3.02573C2.70533 9.71776 2.38784 9.65499 2.09229 9.53127C1.79673 9.40755 1.5292 9.22543 1.30573 8.99582C1.0793 8.77049 0.899923 8.50239 0.778034 8.20711C0.656146 7.91183 0.594177 7.59526 0.595732 7.27582V3.40582C0.595726 2.76042 0.851424 2.14131 1.30685 1.68401C1.76228 1.2267 2.38034 0.968465 3.02573 0.96582H6.89573C7.2158 0.966128 7.53262 1.02992 7.82786 1.15351C8.1231 1.2771 8.39089 1.45803 8.61573 1.68582C8.84367 1.90846 9.02479 2.17444 9.14844 2.4681C9.27209 2.76176 9.33577 3.07719 9.33573 3.39582ZM20.0857 3.40582V7.27582C20.0805 7.91962 19.8232 8.53573 19.3689 8.99191C18.9145 9.44809 18.2995 9.70799 17.6557 9.71582H13.7757C13.1289 9.71186 12.5088 9.45737 12.0457 9.00582C11.8194 8.77831 11.6403 8.5084 11.5184 8.21154C11.3966 7.91468 11.3345 7.5967 11.3357 7.27582V3.40582C11.3344 3.08551 11.3974 2.76818 11.5211 2.47271C11.6448 2.17723 11.8266 1.90964 12.0557 1.68582C12.2806 1.45803 12.5484 1.2771 12.8436 1.15351C13.1388 1.02992 13.4557 0.966128 13.7757 0.96582H17.6457C18.2912 0.971047 18.9088 1.2298 19.3653 1.68626C19.8218 2.14272 20.0805 2.76031 20.0857 3.40582ZM20.0857 14.1558V18.0258C20.0805 18.6696 19.8232 19.2857 19.3689 19.7419C18.9145 20.1981 18.2995 20.458 17.6557 20.4658H13.7757C13.1248 20.4724 12.497 20.2249 12.0257 19.7758C11.7985 19.549 11.6188 19.2792 11.4969 18.9822C11.375 18.6852 11.3134 18.3669 11.3157 18.0458V14.1758C11.3144 13.8555 11.3775 13.5382 11.5012 13.2427C11.6248 12.9473 11.8066 12.6797 12.0357 12.4558C12.2606 12.2281 12.5284 12.0472 12.8236 11.9236C13.1189 11.8 13.4357 11.7362 13.7557 11.7358H17.6257C18.2712 11.741 18.8888 11.9998 19.3453 12.4563C19.8018 12.9127 20.0605 13.5303 20.0657 14.1758L20.0857 14.1558ZM9.33573 14.1658V18.0358C9.32786 18.6813 9.06659 19.2978 8.60825 19.7524C8.14992 20.207 7.53127 20.4632 6.88573 20.4658H3.02573C2.70625 20.4671 2.38967 20.4052 2.09425 20.2835C1.79883 20.1619 1.53042 19.983 1.30451 19.757C1.0786 19.5311 0.89966 19.2627 0.77801 18.9673C0.656359 18.6719 0.594409 18.3553 0.595732 18.0358V14.1658C0.598308 13.5203 0.854524 12.9016 1.30911 12.4433C1.76371 11.985 2.38024 11.7237 3.02573 11.7158H6.89573C7.54415 11.7214 8.16481 11.9797 8.62573 12.4358C9.08182 12.8959 9.33711 13.518 9.33573 14.1658Z" fill="white"/>
</svg>
