<svg width="16" height="12" viewBox="0 0 16 12" fill="none" xmlns="http://www.w3.org/2000/svg">
<path d="M7.9297 0.364624C3.64116 0.364624 0.166504 2.9519 0.166504 6.1452C0.166504 9.33851 3.64116 11.9258 7.9297 11.9258C12.2182 11.9258 15.6929 9.33851 15.6929 6.1452C15.6929 2.9519 12.2182 0.364624 7.9297 0.364624ZM9.71711 8.52503L6.95617 7.03094C6.85913 6.97733 6.80278 6.89341 6.80278 6.80484V2.88197C6.80278 2.72813 6.97182 2.60227 7.17842 2.60227H8.68098C8.88758 2.60227 9.05661 2.72813 9.05661 2.88197V6.09159L11.0444 7.16846C11.2134 7.25936 11.2478 7.43418 11.1258 7.56005L10.243 8.46443C10.1209 8.58796 9.88615 8.61593 9.71711 8.52503Z" fill="black"/>
</svg>
